<?xml version="1.0" encoding="UTF-8" standalone="no"?>
<svg
   xmlns:dc="http://purl.org/dc/elements/1.1/"
   xmlns:cc="http://creativecommons.org/ns#"
   xmlns:rdf="http://www.w3.org/1999/02/22-rdf-syntax-ns#"
   xmlns:svg="http://www.w3.org/2000/svg"
   xmlns="http://www.w3.org/2000/svg"
   xmlns:xlink="http://www.w3.org/1999/xlink"
   xmlns:sodipodi="http://sodipodi.sourceforge.net/DTD/sodipodi-0.dtd"
   xmlns:inkscape="http://www.inkscape.org/namespaces/inkscape"
   width="170.56459mm"
   height="162.63792mm"
   viewBox="0 0 170.56459 162.63792"
   version="1.1"
   id="svg8"
   sodipodi:docname="drawing.svg"
   inkscape:version="1.0.1 (3bc2e813f5, 2020-09-07)">
  <defs
     id="defs2">
    <pattern
       inkscape:collect="always"
       xlink:href="#pattern987"
       id="pattern1142"
       patternTransform="matrix(0.26458333,0,0,0.26458333,16.393294,18.466753)" />
    <clipPath
       clipPathUnits="userSpaceOnUse"
       id="clipPath26">
      <path
         d="M 0,500 H 500 V 0 H 0 Z"
         id="path24" />
    </clipPath>
    <pattern
       patternUnits="userSpaceOnUse"
       width="644.65359"
       height="614.69452"
       patternTransform="translate(51.958907,506.93845)"
       id="pattern987">
      <g
         id="g22"
         clip-path="url(#clipPath26)"
         transform="matrix(1.3333333,0,0,-1.3333333,-14.2348,614.69452)">
        <g
           id="g28"
           transform="translate(357.958,0.9082)">
          <path
             d="M 0,0 C -0.065,1.302 -0.158,2.607 -0.277,3.895 L 23.28,13.919 C 22.1,22.024 20.251,29.916 17.689,37.505 L -7.882,35.758 C -11.074,43.69 -15.146,51.172 -20,58.091 l 15.386,20.443 c -5.032,6.347 -10.616,12.241 -16.682,17.595 l -21.242,-14.27 c -6.639,5.215 -13.897,9.681 -21.651,13.287 l 3.103,25.448 c -7.439,2.955 -15.219,5.228 -23.25,6.842 l -11.258,-22.981 c -4.156,0.579 -8.377,0.958 -12.674,1.074 -4.295,0.111 -8.53,-0.038 -12.705,-0.4 l -10.024,23.554 c -8.107,-1.181 -15.998,-3.042 -23.584,-5.595 l 1.738,-25.573 c -7.925,-3.193 -15.413,-7.269 -22.328,-12.115 l -20.445,15.385 c -6.347,-5.035 -12.238,-10.615 -17.595,-16.688 l 14.264,-21.237 c -5.21,-6.64 -9.674,-13.901 -13.288,-21.648 l -25.442,3.102 c -2.949,-7.437 -5.229,-15.216 -6.845,-23.25 L -221.53,9.797 c -0.442,-3.134 -0.747,-7.5 -0.932,-10.704"
             style="fill:#d1703c;fill-opacity:1;fill-rule:nonzero;stroke:none"
             id="path30" />
        </g>
        <g
           id="g32"
           transform="translate(332.1543,-2.6045)">
          <path
             d="m 0,0 c -2.7,42.128 -37.151,75.993 -80.177,77.146 -44.762,1.191 -82.152,-33.487 -84.616,-77.911"
             style="fill:#f1f1f1;fill-opacity:1;fill-rule:nonzero;stroke:none"
             id="path34" />
        </g>
        <g
           id="g36"
           transform="translate(167.4805,-3.7773)">
          <path
             d="M 0,0 C 6.769,39.853 42.531,72.251 84.101,71.143 123.89,70.083 156.854,38.585 163.634,0.897"
             style="fill:#ffffff;fill-opacity:1;fill-rule:nonzero;stroke:none"
             id="path38" />
        </g>
        <g
           id="g40"
           transform="translate(283.1787,0.0205)">
          <path
             d="m 0,0 c 0,-20.125 -16.313,-36.438 -36.438,-36.438 -20.125,0 -36.438,16.313 -36.438,36.438 0,20.124 16.313,36.438 36.438,36.438 C -16.313,36.438 0,20.124 0,0"
             style="fill:#d1703c;fill-opacity:1;fill-rule:nonzero;stroke:none"
             id="path42" />
        </g>
        <g
           id="g44"
           transform="translate(258.8311,-6.5)">
          <path
             d="M 0,0 V 135.199"
             style="fill:none;stroke:#4874ae;stroke-width:6;stroke-linecap:butt;stroke-linejoin:miter;stroke-miterlimit:10;stroke-dasharray:none;stroke-opacity:1"
             id="path46" />
        </g>
        <g
           id="g48"
           transform="translate(257.3887,126.499)">
          <path
             d="M 0,0 81.595,24.667"
             style="fill:none;stroke:#4874ae;stroke-width:6;stroke-linecap:butt;stroke-linejoin:miter;stroke-miterlimit:10;stroke-dasharray:none;stroke-opacity:1"
             id="path50" />
        </g>
        <g
           id="g52"
           transform="translate(338.9834,151.166)">
          <path
             d="M 0,0 42.097,-16.192"
             style="fill:none;stroke:#4874ae;stroke-width:6;stroke-linecap:butt;stroke-linejoin:miter;stroke-miterlimit:10;stroke-dasharray:none;stroke-opacity:1"
             id="path54" />
        </g>
        <g
           id="g56"
           transform="translate(338.9834,151.166)">
          <path
             d="M 0,0 78.53,37.648"
             style="fill:none;stroke:#4874ae;stroke-width:6;stroke-linecap:butt;stroke-linejoin:miter;stroke-miterlimit:10;stroke-dasharray:none;stroke-opacity:1"
             id="path58" />
        </g>
        <g
           id="g60"
           transform="translate(416.5557,188.4346)">
          <path
             d="M 0,0 43.871,4.427"
             style="fill:none;stroke:#4874ae;stroke-width:6;stroke-linecap:butt;stroke-linejoin:miter;stroke-miterlimit:10;stroke-dasharray:none;stroke-opacity:1"
             id="path62" />
        </g>
        <g
           id="g64"
           transform="translate(341.8213,153.1904)">
          <path
             d="M 0,0 26.717,72.865"
             style="fill:none;stroke:#4874ae;stroke-width:6;stroke-linecap:butt;stroke-linejoin:miter;stroke-miterlimit:10;stroke-dasharray:none;stroke-opacity:1"
             id="path66" />
        </g>
        <g
           id="g68"
           transform="translate(368.5381,226.0557)">
          <path
             d="M 0,0 -3.245,31.575"
             style="fill:none;stroke:#4874ae;stroke-width:6;stroke-linecap:butt;stroke-linejoin:miter;stroke-miterlimit:10;stroke-dasharray:none;stroke-opacity:1"
             id="path70" />
        </g>
        <g
           id="g72"
           transform="translate(368.5381,226.0557)">
          <path
             d="M 0,0 63.961,91.944"
             style="fill:none;stroke:#4874ae;stroke-width:6;stroke-linecap:butt;stroke-linejoin:miter;stroke-miterlimit:10;stroke-dasharray:none;stroke-opacity:1"
             id="path74" />
        </g>
        <g
           id="g76"
           transform="translate(386.042,173.9375)">
          <path
             d="M 0,0 -10.398,10.17"
             style="fill:none;stroke:#4874ae;stroke-width:6;stroke-linecap:butt;stroke-linejoin:miter;stroke-miterlimit:10;stroke-dasharray:none;stroke-opacity:1"
             id="path78" />
        </g>
        <g
           id="g80"
           transform="translate(376.9346,181.7314)">
          <path
             d="M 0,0 73.776,87.439"
             style="fill:none;stroke:#4874ae;stroke-width:6;stroke-linecap:butt;stroke-linejoin:miter;stroke-miterlimit:10;stroke-dasharray:none;stroke-opacity:1"
             id="path82" />
        </g>
        <g
           id="g84"
           transform="translate(379.2109,135.0762)">
          <path
             d="M 0,0 22.014,8.196"
             style="fill:none;stroke:#4874ae;stroke-width:6;stroke-linecap:butt;stroke-linejoin:miter;stroke-miterlimit:10;stroke-dasharray:none;stroke-opacity:1"
             id="path86" />
        </g>
        <g
           id="g88"
           transform="translate(251.2402,-6)">
          <path
             d="M 0,0 V 143.506"
             style="fill:none;stroke:#4874ae;stroke-width:6;stroke-linecap:butt;stroke-linejoin:miter;stroke-miterlimit:10;stroke-dasharray:none;stroke-opacity:1"
             id="path90" />
        </g>
        <g
           id="g92"
           transform="translate(271.1279,144.9434)">
          <path
             d="M 0,0 -20.951,-9.564"
             style="fill:none;stroke:#4874ae;stroke-width:6;stroke-linecap:butt;stroke-linejoin:miter;stroke-miterlimit:10;stroke-dasharray:none;stroke-opacity:1"
             id="path94" />
        </g>
        <g
           id="g96"
           transform="translate(269.7617,142.8164)">
          <path
             d="M 0,0 3.34,80.609"
             style="fill:none;stroke:#4874ae;stroke-width:6;stroke-linecap:butt;stroke-linejoin:miter;stroke-miterlimit:10;stroke-dasharray:none;stroke-opacity:1"
             id="path98" />
        </g>
        <g
           id="g100"
           transform="translate(273.1016,223.4258)">
          <path
             d="M 0,0 -2.885,59.355"
             style="fill:none;stroke:#4874ae;stroke-width:6;stroke-linecap:butt;stroke-linejoin:miter;stroke-miterlimit:10;stroke-dasharray:none;stroke-opacity:1"
             id="path102" />
        </g>
        <g
           id="g104"
           transform="translate(274.0107,217.9609)">
          <path
             d="M 0,0 55.257,48.577"
             style="fill:none;stroke:#4874ae;stroke-width:6;stroke-linecap:butt;stroke-linejoin:miter;stroke-miterlimit:10;stroke-dasharray:none;stroke-opacity:1"
             id="path106" />
        </g>
        <g
           id="g108"
           transform="translate(328.585,265.4761)">
          <path
             d="M 0,0 31.415,70.024"
             style="fill:none;stroke:#4874ae;stroke-width:6;stroke-linecap:butt;stroke-linejoin:miter;stroke-miterlimit:10;stroke-dasharray:none;stroke-opacity:1"
             id="path110" />
        </g>
        <g
           id="g112"
           transform="translate(270.6729,282.4771)">
          <path
             d="M 0,0 35.064,28.843"
             style="fill:none;stroke:#4874ae;stroke-width:6;stroke-linecap:butt;stroke-linejoin:miter;stroke-miterlimit:10;stroke-dasharray:none;stroke-opacity:1"
             id="path114" />
        </g>
        <g
           id="g116"
           transform="translate(304.9795,310.2573)">
          <path
             d="M 0,0 40.146,130.006"
             style="fill:none;stroke:#4874ae;stroke-width:6;stroke-linecap:butt;stroke-linejoin:miter;stroke-miterlimit:10;stroke-dasharray:none;stroke-opacity:1"
             id="path118" />
        </g>
        <g
           id="g120"
           transform="translate(270.2168,281.4146)">
          <path
             d="M 0,0 7.134,28.083"
             style="fill:none;stroke:#4874ae;stroke-width:6;stroke-linecap:butt;stroke-linejoin:miter;stroke-miterlimit:10;stroke-dasharray:none;stroke-opacity:1"
             id="path122" />
        </g>
        <g
           id="g124"
           transform="translate(277.6543,308.436)">
          <path
             d="M 0,0 -12.145,35.219"
             style="fill:none;stroke:#4874ae;stroke-width:6;stroke-linecap:butt;stroke-linejoin:miter;stroke-miterlimit:10;stroke-dasharray:none;stroke-opacity:1"
             id="path126" />
        </g>
        <g
           id="g128"
           transform="translate(242.1279,-6.5)">
          <path
             d="M 0,0 0.927,150.286"
             style="fill:none;stroke:#4874ae;stroke-width:6;stroke-linecap:butt;stroke-linejoin:miter;stroke-miterlimit:10;stroke-dasharray:none;stroke-opacity:1"
             id="path130" />
        </g>
        <g
           id="g132"
           transform="translate(242.8921,143.4248)">
          <path
             d="M 0,0 -11.994,73.727"
             style="fill:none;stroke:#4874ae;stroke-width:6;stroke-linecap:butt;stroke-linejoin:miter;stroke-miterlimit:10;stroke-dasharray:none;stroke-opacity:1"
             id="path134" />
        </g>
        <g
           id="g136"
           transform="translate(230.8984,217.1514)">
          <path
             d="M 0,0 6.48,44.124"
             style="fill:none;stroke:#4874ae;stroke-width:6;stroke-linecap:butt;stroke-linejoin:miter;stroke-miterlimit:10;stroke-dasharray:none;stroke-opacity:1"
             id="path138" />
        </g>
        <g
           id="g140"
           transform="translate(237.3267,260.0601)">
          <path
             d="M 0,0 -17.002,35.219"
             style="fill:none;stroke:#4874ae;stroke-width:6;stroke-linecap:butt;stroke-linejoin:miter;stroke-miterlimit:10;stroke-dasharray:none;stroke-opacity:1"
             id="path142" />
        </g>
        <g
           id="g144"
           transform="translate(219.6177,295.127)">
          <path
             d="M 0,0 26.31,52.221"
             style="fill:none;stroke:#4874ae;stroke-width:6;stroke-linecap:butt;stroke-linejoin:miter;stroke-miterlimit:10;stroke-dasharray:none;stroke-opacity:1"
             id="path146" />
        </g>
        <g
           id="g148"
           transform="translate(245.4727,346.2847)">
          <path
             d="M 0,0 -3.237,99.316"
             style="fill:none;stroke:#4874ae;stroke-width:6;stroke-linecap:butt;stroke-linejoin:miter;stroke-miterlimit:10;stroke-dasharray:none;stroke-opacity:1"
             id="path150" />
        </g>
        <g
           id="g152"
           transform="translate(220.6523,294.3936)">
          <path
             d="M 0,0 -26.234,36.509"
             style="fill:none;stroke:#4874ae;stroke-width:6;stroke-linecap:butt;stroke-linejoin:miter;stroke-miterlimit:10;stroke-dasharray:none;stroke-opacity:1"
             id="path154" />
        </g>
        <g
           id="g156"
           transform="translate(195.0728,329.3853)">
          <path
             d="M 0,0 -5.513,70.88"
             style="fill:none;stroke:#4874ae;stroke-width:6;stroke-linecap:butt;stroke-linejoin:miter;stroke-miterlimit:10;stroke-dasharray:none;stroke-opacity:1"
             id="path158" />
        </g>
        <g
           id="g160"
           transform="translate(231.3071,217.251)">
          <path
             d="M 0,0 -43.218,30.665"
             style="fill:none;stroke:#4874ae;stroke-width:6;stroke-linecap:butt;stroke-linejoin:miter;stroke-miterlimit:10;stroke-dasharray:none;stroke-opacity:1"
             id="path162" />
        </g>
        <g
           id="g164"
           transform="translate(188.8013,246.7012)">
          <path
             d="M 0,0 -49.802,98.299"
             style="fill:none;stroke:#4874ae;stroke-width:6;stroke-linecap:butt;stroke-linejoin:miter;stroke-miterlimit:10;stroke-dasharray:none;stroke-opacity:1"
             id="path166" />
        </g>
        <g
           id="g168"
           transform="translate(233.3276,-5.75)">
          <path
             d="M 0,0 V 137.485"
             style="fill:none;stroke:#4874ae;stroke-width:6;stroke-linecap:butt;stroke-linejoin:miter;stroke-miterlimit:10;stroke-dasharray:none;stroke-opacity:1"
             id="path170" />
        </g>
        <g
           id="g172"
           transform="translate(235.1484,129.459)">
          <path
             d="M 0,0 -66.186,19.886"
             style="fill:none;stroke:#4874ae;stroke-width:6;stroke-linecap:butt;stroke-linejoin:miter;stroke-miterlimit:10;stroke-dasharray:none;stroke-opacity:1"
             id="path174" />
        </g>
        <g
           id="g176"
           transform="translate(169.8726,150.2559)">
          <path
             d="M 0,0 -62.239,-23.074"
             style="fill:none;stroke:#4874ae;stroke-width:6;stroke-linecap:butt;stroke-linejoin:miter;stroke-miterlimit:10;stroke-dasharray:none;stroke-opacity:1"
             id="path178" />
        </g>
        <g
           id="g180"
           transform="translate(108.6958,127.334)">
          <path
             d="M 0,0 -48.425,0.911"
             style="fill:none;stroke:#4874ae;stroke-width:6;stroke-linecap:butt;stroke-linejoin:miter;stroke-miterlimit:10;stroke-dasharray:none;stroke-opacity:1"
             id="path182" />
        </g>
        <g
           id="g184"
           transform="translate(171.1641,148.6631)">
          <path
             d="M 0,0 -72.031,35.899"
             style="fill:none;stroke:#4874ae;stroke-width:6;stroke-linecap:butt;stroke-linejoin:miter;stroke-miterlimit:10;stroke-dasharray:none;stroke-opacity:1"
             id="path186" />
        </g>
        <g
           id="g188"
           transform="translate(99.8911,184.335)">
          <path
             d="M 0,0 -53.738,10.021"
             style="fill:none;stroke:#4874ae;stroke-width:6;stroke-linecap:butt;stroke-linejoin:miter;stroke-miterlimit:10;stroke-dasharray:none;stroke-opacity:1"
             id="path190" />
        </g>
        <g
           id="g192"
           transform="translate(46.1528,194.3555)">
          <path
             d="M 0,0 -18.216,38.254"
             style="fill:none;stroke:#4874ae;stroke-width:6;stroke-linecap:butt;stroke-linejoin:miter;stroke-miterlimit:10;stroke-dasharray:none;stroke-opacity:1"
             id="path194" />
        </g>
        <g
           id="g196"
           transform="translate(46.1528,194.3555)">
          <path
             d="M 0,0 -21.556,-13.967"
             style="fill:none;stroke:#4874ae;stroke-width:6;stroke-linecap:butt;stroke-linejoin:miter;stroke-miterlimit:10;stroke-dasharray:none;stroke-opacity:1"
             id="path198" />
        </g>
        <g
           id="g200"
           transform="translate(131.3154,168.7002)">
          <path
             d="M 0,0 -0.304,21.784"
             style="fill:none;stroke:#4874ae;stroke-width:6;stroke-linecap:butt;stroke-linejoin:miter;stroke-miterlimit:10;stroke-dasharray:none;stroke-opacity:1"
             id="path202" />
        </g>
        <g
           id="g204"
           transform="translate(131.5425,189.1172)">
          <path
             d="M 0,0 -65.2,77.117"
             style="fill:none;stroke:#4874ae;stroke-width:6;stroke-linecap:butt;stroke-linejoin:miter;stroke-miterlimit:10;stroke-dasharray:none;stroke-opacity:1"
             id="path206" />
        </g>
        <g
           id="g208"
           transform="translate(156.0596,155.7207)">
          <path
             d="M 0,0 V 48.957"
             style="fill:none;stroke:#4874ae;stroke-width:6;stroke-linecap:butt;stroke-linejoin:miter;stroke-miterlimit:10;stroke-dasharray:none;stroke-opacity:1"
             id="path210" />
        </g>
        <g
           id="g212"
           transform="translate(156.3633,203.2354)">
          <path
             d="M 0,0 -82.278,106.263"
             style="fill:none;stroke:#4874ae;stroke-width:6;stroke-linecap:butt;stroke-linejoin:miter;stroke-miterlimit:10;stroke-dasharray:none;stroke-opacity:1"
             id="path214" />
        </g>
        <g
           id="g216"
           transform="translate(123.2695,247.8652)">
          <path
             d="M 0,0 9.308,17.611"
             style="fill:none;stroke:#4874ae;stroke-width:6;stroke-linecap:butt;stroke-linejoin:miter;stroke-miterlimit:10;stroke-dasharray:none;stroke-opacity:1"
             id="path218" />
        </g>
        <g
           id="g220"
           transform="translate(132.6816,263.0469)">
          <path
             d="M 0,0 -23.682,34.611"
             style="fill:none;stroke:#4874ae;stroke-width:6;stroke-linecap:butt;stroke-linejoin:miter;stroke-miterlimit:10;stroke-dasharray:none;stroke-opacity:1"
             id="path222" />
        </g>
        <g
           id="g224"
           transform="translate(188.2041,399.0039)">
          <path
             d="M 0,0 C -11.717,0 -21.215,9.492 -21.215,21.217 -21.21,32.93 -11.717,42.429 0,42.429 11.712,42.429 21.224,32.93 21.224,21.217 21.224,9.488 11.712,0 0,0 Z"
             style="fill:none;stroke:#4874ae;stroke-width:6;stroke-linecap:butt;stroke-linejoin:miter;stroke-miterlimit:10;stroke-dasharray:none;stroke-opacity:1"
             id="path226" />
        </g>
        <g
           id="g228"
           transform="translate(54.4165,263.4453)">
          <path
             d="m 0,0 c -9.706,0 -17.571,7.862 -17.571,17.573 0.002,9.701 7.865,17.569 17.571,17.569 9.701,0 17.576,-7.868 17.576,-17.569 C 17.576,7.858 9.701,0 0,0 Z"
             style="fill:none;stroke:#4874ae;stroke-width:6;stroke-linecap:butt;stroke-linejoin:miter;stroke-miterlimit:10;stroke-dasharray:none;stroke-opacity:1"
             id="path230" />
        </g>
        <g
           id="g232"
           transform="translate(132.8159,343.9746)">
          <path
             d="M 0,0 C -7.362,0 -13.326,5.96 -13.326,13.323 -13.32,20.679 -7.362,26.642 0,26.642 7.354,26.642 13.321,20.679 13.321,13.323 13.321,5.956 7.354,0 0,0 Z"
             style="fill:none;stroke:#4874ae;stroke-width:6;stroke-linecap:butt;stroke-linejoin:miter;stroke-miterlimit:10;stroke-dasharray:none;stroke-opacity:1"
             id="path234" />
        </g>
        <g
           id="g236"
           transform="translate(66.7671,309.188)">
          <path
             d="m 0,0 c -5.121,0 -9.276,4.148 -9.276,9.276 0.002,5.121 4.155,9.272 9.276,9.272 5.122,0 9.277,-4.151 9.277,-9.272 C 9.277,4.148 5.122,0 0,0 Z"
             style="fill:none;stroke:#4874ae;stroke-width:6;stroke-linecap:butt;stroke-linejoin:miter;stroke-miterlimit:10;stroke-dasharray:none;stroke-opacity:1"
             id="path238" />
        </g>
        <g
           id="g240"
           transform="translate(105.0249,294.6143)">
          <path
             d="m 0,0 c -5.124,0 -9.28,4.148 -9.28,9.277 0.003,5.121 4.156,9.272 9.28,9.272 5.119,0 9.273,-4.151 9.273,-9.272 C 9.273,4.148 5.119,0 0,0 Z"
             style="fill:none;stroke:#4874ae;stroke-width:6;stroke-linecap:butt;stroke-linejoin:miter;stroke-miterlimit:10;stroke-dasharray:none;stroke-opacity:1"
             id="path242" />
        </g>
        <g
           id="g244"
           transform="translate(24.6685,230.0479)">
          <path
             d="m 0,0 c -5.122,0 -9.277,4.148 -9.277,9.276 0.002,5.121 4.155,9.272 9.277,9.272 5.12,0 9.276,-4.151 9.276,-9.272 C 9.276,4.148 5.12,0 0,0 Z"
             style="fill:none;stroke:#4874ae;stroke-width:6;stroke-linecap:butt;stroke-linejoin:miter;stroke-miterlimit:10;stroke-dasharray:none;stroke-opacity:1"
             id="path246" />
        </g>
        <g
           id="g248"
           transform="translate(348.3174,437.4785)">
          <path
             d="m 0,0 c -5.122,0 -9.278,4.149 -9.278,9.277 0,5.121 4.156,9.273 9.278,9.273 5.12,0 9.275,-4.152 9.275,-9.273 C 9.275,4.149 5.12,0 0,0 Z"
             style="fill:none;stroke:#4874ae;stroke-width:6;stroke-linecap:butt;stroke-linejoin:miter;stroke-miterlimit:10;stroke-dasharray:none;stroke-opacity:1"
             id="path250" />
        </g>
        <g
           id="g252"
           transform="translate(364.9121,256.0557)">
          <path
             d="m 0,0 c -5.123,0 -9.278,4.149 -9.278,9.277 0,5.121 4.155,9.273 9.278,9.273 5.119,0 9.275,-4.152 9.275,-9.273 C 9.275,4.149 5.119,0 0,0 Z"
             style="fill:none;stroke:#4874ae;stroke-width:6;stroke-linecap:butt;stroke-linejoin:miter;stroke-miterlimit:10;stroke-dasharray:none;stroke-opacity:1"
             id="path254" />
        </g>
        <g
           id="g256"
           transform="translate(405.498,138.5596)">
          <path
             d="m 0,0 c -3.952,0 -7.154,3.196 -7.154,7.152 0,3.947 3.202,7.146 7.154,7.146 3.942,0 7.147,-3.199 7.147,-7.146 C 7.147,3.196 3.942,0 0,0 Z"
             style="fill:none;stroke:#4874ae;stroke-width:6;stroke-linecap:butt;stroke-linejoin:miter;stroke-miterlimit:10;stroke-dasharray:none;stroke-opacity:1"
             id="path258" />
        </g>
        <g
           id="g260"
           transform="translate(474.9443,179.585)">
          <path
             d="m 0,0 c -8.957,0 -16.217,7.257 -16.217,16.218 0.005,8.953 7.26,16.215 16.217,16.215 8.952,0 16.222,-7.262 16.222,-16.215 C 16.222,7.253 8.952,0 0,0 Z"
             style="fill:none;stroke:#4874ae;stroke-width:6;stroke-linecap:butt;stroke-linejoin:miter;stroke-miterlimit:10;stroke-dasharray:none;stroke-opacity:1"
             id="path262" />
        </g>
        <g
           id="g264"
           transform="translate(439.4531,312.082)">
          <path
             d="m 0,0 c -8.706,0 -15.751,7.046 -15.751,15.752 0,8.695 7.045,15.747 15.751,15.747 8.695,0 15.754,-7.052 15.754,-15.747 C 15.754,7.042 8.695,0 0,0 Z"
             style="fill:none;stroke:#4874ae;stroke-width:6;stroke-linecap:butt;stroke-linejoin:miter;stroke-miterlimit:10;stroke-dasharray:none;stroke-opacity:1"
             id="path266" />
        </g>
        <g
           id="g268"
           transform="translate(287.7148,387.2129)">
          <path
             d="m 0,0 c -5.685,0 -10.285,4.602 -10.285,10.287 0,5.679 4.6,10.283 10.285,10.283 5.673,0 10.284,-4.604 10.284,-10.283 C 10.284,4.597 5.673,0 0,0 Z"
             style="fill:none;stroke:#4874ae;stroke-width:6;stroke-linecap:butt;stroke-linejoin:miter;stroke-miterlimit:10;stroke-dasharray:none;stroke-opacity:1"
             id="path270" />
        </g>
        <g
           id="g272"
           transform="translate(363.3223,332.9785)">
          <path
             d="m 0,0 c -6.186,0 -11.201,5.01 -11.201,11.198 0,6.181 5.015,11.193 11.201,11.193 6.177,0 11.195,-5.012 11.195,-11.193 C 11.195,5.004 6.177,0 0,0 Z"
             style="fill:none;stroke:#4874ae;stroke-width:6;stroke-linecap:butt;stroke-linejoin:miter;stroke-miterlimit:10;stroke-dasharray:none;stroke-opacity:1"
             id="path274" />
        </g>
        <g
           id="g276"
           transform="translate(455.9951,269.0098)">
          <path
             d="m 0,0 c -3.837,0 -6.944,3.107 -6.944,6.947 0,3.834 3.107,6.943 6.944,6.943 3.834,0 6.946,-3.109 6.946,-6.943 C 6.946,3.104 3.834,0 0,0 Z"
             style="fill:none;stroke:#4874ae;stroke-width:6;stroke-linecap:butt;stroke-linejoin:miter;stroke-miterlimit:10;stroke-dasharray:none;stroke-opacity:1"
             id="path278" />
        </g>
        <g
           id="g280"
           transform="translate(242.3159,444.1309)">
          <path
             d="m 0,0 c -3.838,0 -6.945,3.108 -6.945,6.948 0,3.833 3.107,6.942 6.945,6.942 3.832,0 6.944,-3.109 6.944,-6.942 C 6.944,3.105 3.832,0 0,0 Z"
             style="fill:none;stroke:#4874ae;stroke-width:6;stroke-linecap:butt;stroke-linejoin:miter;stroke-miterlimit:10;stroke-dasharray:none;stroke-opacity:1"
             id="path282" />
        </g>
        <g
           id="g284"
           transform="translate(20.6211,170.6396)">
          <path
             d="m 0,0 c -3.838,0 -6.945,3.107 -6.945,6.948 0,3.833 3.107,6.943 6.945,6.943 3.833,0 6.947,-3.11 6.947,-6.943 C 6.947,3.105 3.833,0 0,0 Z"
             style="fill:none;stroke:#4874ae;stroke-width:6;stroke-linecap:butt;stroke-linejoin:miter;stroke-miterlimit:10;stroke-dasharray:none;stroke-opacity:1"
             id="path286" />
        </g>
        <g
           id="g288"
           transform="translate(53.207,121.0498)">
          <path
             d="m 0,0 c -3.838,0 -6.945,3.107 -6.945,6.946 0,3.835 3.107,6.944 6.945,6.944 3.833,0 6.947,-3.109 6.947,-6.944 C 6.947,3.105 3.833,0 0,0"
             style="fill:#ffffff;fill-opacity:1;fill-rule:nonzero;stroke:none"
             id="path290" />
        </g>
        <g
           id="g292"
           transform="translate(53.207,121.0498)">
          <path
             d="m 0,0 c -3.838,0 -6.945,3.107 -6.945,6.946 0,3.835 3.107,6.944 6.945,6.944 3.833,0 6.947,-3.109 6.947,-6.944 C 6.947,3.105 3.833,0 0,0 Z"
             style="fill:none;stroke:#4874ae;stroke-width:6;stroke-linecap:butt;stroke-linejoin:miter;stroke-miterlimit:10;stroke-dasharray:none;stroke-opacity:1"
             id="path294" />
        </g>
        <g
           id="g296"
           transform="translate(312.5127,143.8467)">
          <path
             d="M 0,0 8.977,44.208"
             style="fill:none;stroke:#4874ae;stroke-width:6;stroke-linecap:butt;stroke-linejoin:miter;stroke-miterlimit:10;stroke-dasharray:none;stroke-opacity:1"
             id="path298" />
        </g>
        <g
           id="g300"
           transform="translate(321.6963,186.1904)">
          <path
             d="M 0,0 -11.735,20.343"
             style="fill:none;stroke:#4874ae;stroke-width:6;stroke-linecap:butt;stroke-linejoin:miter;stroke-miterlimit:10;stroke-dasharray:none;stroke-opacity:1"
             id="path302" />
        </g>
        <g
           id="g304"
           transform="translate(313.8975,211.5332)">
          <path
             d="m 0,0 c 0.65,-3.894 -1.974,-7.588 -5.864,-8.243 -3.895,-0.657 -7.579,1.973 -8.24,5.866 -0.658,3.892 1.969,7.588 5.859,8.242 C -4.344,6.521 -0.658,3.892 0,0"
             style="fill:#fcfcfc;fill-opacity:1;fill-rule:nonzero;stroke:none"
             id="path306" />
        </g>
        <g
           id="g308"
           transform="translate(313.8975,211.5332)">
          <path
             d="m 0,0 c 0.65,-3.894 -1.974,-7.588 -5.864,-8.243 -3.895,-0.657 -7.579,1.973 -8.24,5.866 -0.658,3.892 1.969,7.588 5.859,8.242 C -4.344,6.521 -0.658,3.892 0,0 Z"
             style="fill:none;stroke:#4874ae;stroke-width:6;stroke-linecap:butt;stroke-linejoin:miter;stroke-miterlimit:10;stroke-dasharray:none;stroke-opacity:1"
             id="path310" />
        </g>
        <g
           id="g312"
           transform="translate(199.0859,140.0146)">
          <path
             d="M 0,0 0.608,23.479"
             style="fill:none;stroke:#4874ae;stroke-width:6;stroke-linecap:butt;stroke-linejoin:miter;stroke-miterlimit:10;stroke-dasharray:none;stroke-opacity:1"
             id="path314" />
        </g>
        <g
           id="g316"
           transform="translate(205.6616,165.7012)">
          <path
             d="m 0,0 c -1.471,-3.666 -5.637,-5.445 -9.303,-3.97 -3.667,1.472 -5.437,5.641 -3.962,9.303 1.471,3.66 5.637,5.44 9.299,3.971 C -0.299,7.828 1.47,3.66 0,0"
             style="fill:#ffffff;fill-opacity:1;fill-rule:nonzero;stroke:none"
             id="path318" />
        </g>
        <g
           id="g320"
           transform="translate(205.6616,165.7012)">
          <path
             d="m 0,0 c -1.471,-3.666 -5.637,-5.445 -9.303,-3.97 -3.667,1.472 -5.437,5.641 -3.962,9.303 1.471,3.66 5.637,5.44 9.299,3.971 C -0.299,7.828 1.47,3.66 0,0 Z"
             style="fill:none;stroke:#4874ae;stroke-width:6;stroke-linecap:butt;stroke-linejoin:miter;stroke-miterlimit:10;stroke-dasharray:none;stroke-opacity:1"
             id="path322" />
        </g>
        <g
           id="g324"
           transform="translate(265.332,341.6665)">
          <path
             d="M 0,0 19,45.333"
             style="fill:none;stroke:#4874ae;stroke-width:6;stroke-linecap:butt;stroke-linejoin:miter;stroke-miterlimit:10;stroke-dasharray:none;stroke-opacity:1"
             id="path326" />
        </g>
      </g>
    </pattern>
  </defs>
  <sodipodi:namedview
     id="base"
     pagecolor="#ffffff"
     bordercolor="#666666"
     borderopacity="1.0"
     inkscape:pageopacity="0.0"
     inkscape:pageshadow="2"
     inkscape:zoom="0.7"
     inkscape:cx="-127.61673"
     inkscape:cy="491.98306"
     inkscape:document-units="mm"
     inkscape:current-layer="layer1"
     inkscape:document-rotation="0"
     showgrid="false"
     inkscape:window-width="1920"
     inkscape:window-height="1009"
     inkscape:window-x="-8"
     inkscape:window-y="-8"
     inkscape:window-maximized="1" />
  <metadata
     id="metadata5">
    <rdf:RDF>
      <cc:Work
         rdf:about="">
        <dc:format>image/svg+xml</dc:format>
        <dc:type
           rdf:resource="http://purl.org/dc/dcmitype/StillImage" />
      </cc:Work>
    </rdf:RDF>
  </metadata>
  <g
     inkscape:label="Layer 1"
     inkscape:groupmode="layer"
     id="layer1"
     transform="translate(-16.393293,-18.466747)">
    <rect
       style="fill:url(#pattern1142);stroke:none;stroke-width:0.264583"
       width="170.56459"
       height="162.63792"
       x="16.393293"
       y="18.466747"
       id="rect1140" />
  </g>
</svg>
