<?xml version="1.0" standalone="no"?>
<!DOCTYPE svg PUBLIC "-//W3C//DTD SVG 20010904//EN"
 "http://www.w3.org/TR/2001/REC-SVG-20010904/DTD/svg10.dtd">
<svg version="1.0" xmlns="http://www.w3.org/2000/svg"
 width="500.000000pt" height="500.000000pt" viewBox="0 0 500.000000 500.000000"
 preserveAspectRatio="xMidYMid meet">
<metadata>
Created by potrace 1.11, written by Peter Selinger 2001-2013
</metadata>
<g transform="translate(0.000000,500.000000) scale(0.100000,-0.100000)"
fill="#000000" stroke="none">
<path d="M2349 4581 c-23 -23 -29 -38 -29 -72 0 -35 6 -47 35 -74 l34 -33 16
-464 16 -463 -114 -223 c-105 -206 -115 -221 -129 -205 -8 10 -56 74 -105 144
l-90 125 -22 295 c-12 161 -23 306 -26 320 -4 24 1 29 39 43 96 37 150 121
151 231 0 59 -4 78 -28 118 -85 144 -277 168 -393 49 -49 -50 -67 -107 -62
-191 3 -58 9 -78 34 -113 38 -55 100 -98 150 -105 l40 -5 25 -337 26 -336 132
-183 c108 -150 145 -211 209 -345 l78 -162 -26 -172 c-14 -94 -27 -174 -30
-176 -3 -3 -88 54 -188 127 l-184 131 -236 465 -236 466 23 30 c66 89 33 219
-65 260 -117 49 -242 -43 -231 -169 7 -84 65 -139 154 -147 l56 -5 241 -476
241 -475 211 -150 211 -149 61 -380 c64 -388 72 -487 56 -644 -11 -102 -24
-68 -24 63 0 83 -4 127 -11 132 -7 4 -82 28 -168 54 l-156 46 -3 77 c-3 75 -2
77 29 105 25 22 32 37 33 68 1 74 -51 121 -124 110 -52 -8 -80 -46 -80 -106 0
-44 4 -52 35 -77 33 -27 35 -31 35 -92 0 -46 -3 -62 -12 -58 -7 2 -56 17 -108
32 -52 14 -130 43 -172 62 l-78 36 0 237 0 237 -160 206 -160 207 42 82 c24
46 42 88 42 94 -1 6 -47 76 -102 157 l-101 147 15 37 c29 68 0 140 -67 167
-97 39 -196 -44 -172 -142 15 -64 76 -108 137 -100 22 3 37 -14 119 -135 l95
-138 -27 -49 c-14 -27 -29 -49 -33 -47 -3 1 -103 127 -221 279 l-215 278 5 63
c4 40 1 72 -6 86 -19 34 -71 61 -119 61 -34 0 -49 -6 -80 -34 -34 -32 -37 -38
-37 -91 0 -53 3 -59 38 -91 34 -32 43 -35 87 -33 l50 3 405 -523 405 -523 0
-199 c0 -110 -2 -199 -5 -199 -3 0 -43 19 -90 42 l-85 42 -1 56 c0 30 -4 80
-8 110 -7 55 -8 57 -314 418 -170 200 -310 369 -313 375 -2 7 5 30 16 52 46
90 15 211 -69 270 -38 27 -51 30 -116 30 -65 0 -78 -3 -117 -30 -123 -87 -123
-263 0 -350 39 -27 51 -30 110 -28 37 1 78 3 92 5 23 3 62 -40 338 -366 l312
-368 0 -69 0 -69 -137 69 -138 68 -259 49 -259 48 -77 161 c-77 160 -77 160
-59 184 23 29 25 100 4 141 -22 42 -68 63 -123 57 -151 -17 -145 -247 6 -247
27 0 32 -8 100 -151 40 -83 72 -154 72 -159 0 -4 -32 -29 -71 -54 -56 -35 -75
-43 -90 -36 -34 19 -77 11 -111 -19 -28 -25 -33 -36 -33 -75 0 -64 37 -101
101 -101 39 0 50 5 75 33 19 21 29 43 29 65 0 29 7 36 81 82 49 31 88 49 102
47 12 -2 126 -23 252 -47 l230 -43 312 -155 313 -154 -263 -97 -263 -97 -216
3 -217 3 -32 33 c-26 27 -39 32 -76 32 -94 0 -139 -105 -74 -171 40 -40 106
-41 145 -3 14 15 26 31 26 35 0 5 100 6 228 3 l227 -7 298 111 299 111 274
-82 c250 -74 271 -83 237 -89 -21 -4 -66 -15 -100 -24 l-63 -16 1 -42 c0 -22
4 -80 7 -129 l7 -87 -60 -29 c-33 -15 -82 -42 -109 -58 l-49 -31 -98 74 c-54
41 -103 74 -108 74 -6 0 -49 -37 -97 -83 l-87 -83 71 -107 72 -106 -48 -74
c-27 -41 -54 -88 -61 -105 -8 -19 -21 -32 -31 -32 -19 0 -150 16 -207 26 -29
4 -34 2 -46 -28 -18 -43 -61 -207 -56 -212 2 -2 54 -29 116 -60 l112 -56 -6
-50 -6 -50 1116 0 1116 0 3 22 c2 18 25 32 120 72 l118 50 -7 41 c-3 22 -16
76 -27 120 l-21 80 -90 -3 c-50 -1 -108 -5 -130 -7 -39 -5 -40 -5 -58 39 -10
25 -36 75 -59 111 l-40 67 77 100 c89 116 91 100 -24 216 l-72 72 -104 -70
c-57 -39 -107 -70 -109 -70 -3 0 -29 17 -59 38 -29 20 -76 48 -103 60 l-50 24
12 101 c7 56 13 114 14 130 0 31 -10 37 -132 71 l-77 21 307 93 c169 51 313
92 320 92 7 0 101 -34 210 -76 l197 -76 90 31 c88 30 92 31 123 15 46 -22 94
-12 127 28 23 27 26 39 22 77 -7 60 -41 91 -102 91 -53 0 -90 -29 -103 -80 -7
-31 -14 -37 -79 -62 l-71 -27 -144 56 c-79 30 -151 58 -161 62 -13 5 84 56
332 174 l351 168 182 19 c101 11 188 20 193 20 6 0 16 -14 23 -30 31 -69 136
-114 217 -92 64 17 92 38 122 90 60 102 15 242 -90 281 -39 15 -121 14 -160
-3 -45 -18 -95 -79 -108 -131 -13 -52 0 -48 -234 -71 l-170 -17 -145 -69 -144
-68 -22 22 -22 23 350 415 351 415 43 3 c129 9 124 202 -6 202 -33 0 -48 -6
-72 -30 -28 -28 -30 -36 -26 -80 l5 -50 -363 -431 c-200 -237 -366 -435 -370
-441 -3 -5 9 -25 27 -44 18 -18 30 -36 28 -39 -10 -9 -300 -147 -304 -144 -1
2 50 147 114 322 l117 318 298 429 298 429 48 -6 c69 -8 115 4 156 39 49 43
67 83 67 148 0 84 -38 142 -115 175 -169 70 -329 -115 -237 -274 11 -19 18
-39 15 -46 -9 -25 -529 -766 -533 -761 -3 3 -9 38 -13 78 l-8 73 34 28 c67 56
64 157 -5 204 -92 62 -215 -17 -197 -127 5 -31 32 -64 92 -109 6 -5 16 -64 22
-132 l12 -124 -130 -355 c-72 -195 -134 -358 -138 -361 -8 -7 -212 -69 -212
-64 0 2 18 90 40 197 l39 193 -44 78 c-41 72 -43 81 -38 132 7 64 -9 95 -56
115 -73 30 -146 -19 -146 -97 0 -38 5 -49 33 -74 22 -19 43 -29 65 -29 30 0
36 -6 70 -63 20 -35 37 -70 37 -78 1 -8 -16 -101 -37 -207 l-37 -193 -101 -30
c-55 -17 -178 -54 -272 -83 -169 -52 -173 -52 -173 -31 0 18 15 29 86 61 47
20 87 41 90 46 4 7 33 598 34 690 0 36 8 45 279 282 l279 246 59 132 c33 73
100 222 148 331 l88 197 35 0 c46 0 86 25 111 70 53 95 -2 202 -111 216 -122
15 -203 -126 -132 -231 30 -45 43 -8 -125 -380 l-130 -290 -248 -218 -248
-218 -6 123 c-4 68 -10 193 -14 278 l-7 155 171 140 172 140 24 80 c14 44 101
325 193 625 l169 545 33 6 c90 19 136 110 95 189 -20 39 -63 60 -121 60 -39 0
-51 -5 -80 -34 -29 -29 -34 -41 -34 -81 0 -29 8 -62 20 -84 l20 -36 -189 -614
c-105 -337 -192 -614 -193 -615 -2 -1 -56 -46 -122 -100 -65 -53 -120 -95
-123 -93 -2 3 5 40 16 83 l21 79 -57 166 -57 165 85 205 86 204 41 8 c28 5 50
19 71 43 27 30 31 43 31 89 0 49 -4 60 -33 92 -29 31 -41 37 -88 40 -45 4 -60
1 -89 -19 -65 -44 -78 -144 -25 -206 l23 -28 -89 -212 -88 -212 58 -169 58
-169 -35 -133 -34 -134 14 -310 c13 -277 13 -349 -1 -679 l-16 -369 -92 -41
-93 -41 0 -157 c0 -99 -4 -158 -10 -158 -6 0 -10 73 -10 198 0 192 -2 205 -58
550 l-58 353 32 217 33 217 -85 177 -84 178 124 249 125 249 -16 473 -15 473
25 21 c38 29 52 76 37 120 -15 46 -44 65 -98 65 -35 0 -49 -6 -73 -29z m105
-58 c9 -22 -13 -45 -38 -41 -26 4 -33 38 -11 54 20 15 41 9 49 -13z m1049 -4
c41 -22 49 -59 20 -91 -23 -25 -58 -22 -81 7 -23 29 -19 59 11 80 26 18 23 18
50 4z m-1543 -161 c110 -56 132 -188 46 -274 -49 -49 -102 -67 -160 -54 -134
30 -184 183 -93 287 58 66 130 80 207 41z m965 -338 c38 -42 9 -110 -47 -110
-35 0 -68 32 -68 65 0 56 77 86 115 45z m-1537 -375 c59 -49 46 -132 -24 -161
-80 -33 -162 53 -123 129 31 60 97 74 147 32z m2297 -150 c44 -43 24 -106 -38
-128 -22 -8 -72 16 -81 38 -14 37 -6 74 20 94 35 28 69 26 99 -4z m776 -118
c22 -15 39 -38 49 -65 14 -40 13 -45 -5 -79 -45 -81 -115 -98 -184 -42 -69 55
-64 143 11 189 43 26 87 25 129 -3z m-3757 -150 c21 -16 24 -60 6 -82 -16 -20
-59 -19 -82 2 -52 47 19 122 76 80z m382 -150 c22 -19 26 -29 20 -51 -3 -15
-18 -32 -31 -38 -34 -15 -72 3 -81 38 -6 22 -2 32 20 51 15 13 31 23 36 23 5
0 21 -10 36 -23z m-476 -146 c131 -70 70 -273 -77 -258 -58 6 -91 30 -115 83
-54 123 73 239 192 175z m3975 -171 c0 -18 -6 -26 -23 -28 -13 -2 -25 3 -28
12 -10 26 4 48 28 44 17 -2 23 -10 23 -28z m-895 -70 c24 -24 25 -38 5 -67
-21 -30 -51 -34 -80 -11 -29 22 -32 44 -9 76 19 28 57 29 84 2z m-3414 -248
c21 -14 32 -47 23 -70 -21 -56 -108 -39 -109 22 0 41 53 70 86 48z m4544 -381
c14 -9 33 -34 44 -55 16 -32 17 -44 8 -75 -35 -114 -179 -133 -234 -30 -24 45
-23 79 5 120 44 66 116 82 177 40z m-4586 -273 c8 -14 7 -21 -6 -34 -30 -30
-75 9 -48 42 16 18 39 15 54 -8z m3853 -314 c8 -22 -10 -49 -32 -49 -10 0 -22
7 -28 16 -15 24 -1 49 28 49 15 0 28 -7 32 -16z m-1790 -216 c-3 -8 -6 -5 -6
6 -1 11 2 17 5 13 3 -3 4 -12 1 -19z m410 -20 c-8 -18 -30 -64 -50 -103 l-36
-70 2 89 2 89 35 13 c57 21 62 19 47 -18z"/>
</g>
</svg>
